<mxfile host="Electron" modified="2024-02-04T11:36:39.463Z" agent="Mozilla/5.0 (Windows NT 10.0; Win64; x64) AppleWebKit/537.36 (KHTML, like Gecko) draw.io/23.0.2 Chrome/120.0.6099.109 Electron/28.1.0 Safari/537.36" etag="R4SXZ2U0QzuJO-pD9e2a" version="23.0.2" type="device">
  <diagram name="Page-1" id="itN2PqRaIBTrXaRQmAt-">
    <mxGraphModel dx="794" dy="511" grid="1" gridSize="10" guides="1" tooltips="1" connect="1" arrows="1" fold="1" page="1" pageScale="1" pageWidth="827" pageHeight="1169" math="0" shadow="0">
      <root>
        <mxCell id="0" />
        <mxCell id="1" parent="0" />
        <UserObject label="Depositor" type="externalEntity" source="" flow="" placeholders="1" id="5h3Ib2V5yh9vbDzyFOlc-1">
          <mxCell style="shape=rectangle;whiteSpace=wrap;html=1;fillColor=#ffffff;strokeColor=#000000;align=center;verticalAlign=middle;fontColor=#232F3E;" vertex="1" parent="1">
            <mxGeometry x="812.5" width="75" height="35" as="geometry" />
          </mxCell>
        </UserObject>
        <UserObject label="External Collaborator" type="externalEntity" source="" flow="" placeholders="1" id="5h3Ib2V5yh9vbDzyFOlc-2">
          <mxCell style="shape=rectangle;whiteSpace=wrap;html=1;fillColor=#ffffff;strokeColor=#000000;align=center;verticalAlign=middle;fontColor=#232F3E;" vertex="1" parent="1">
            <mxGeometry x="2035" width="145" height="35" as="geometry" />
          </mxCell>
        </UserObject>
        <UserObject label="Research Facility Manager" type="externalEntity" source="" flow="" placeholders="1" id="5h3Ib2V5yh9vbDzyFOlc-3">
          <mxCell style="shape=rectangle;whiteSpace=wrap;html=1;fillColor=#ffffff;strokeColor=#000000;align=center;verticalAlign=middle;fontColor=#232F3E;" vertex="1" parent="1">
            <mxGeometry x="917.5" width="175" height="35" as="geometry" />
          </mxCell>
        </UserObject>
        <UserObject label="Developer" type="externalEntity" source="" flow="" placeholders="1" id="5h3Ib2V5yh9vbDzyFOlc-4">
          <mxCell style="shape=rectangle;whiteSpace=wrap;html=1;fillColor=#ffffff;strokeColor=#000000;align=center;verticalAlign=middle;fontColor=#232F3E;" vertex="1" parent="1">
            <mxGeometry x="1235" width="85" height="35" as="geometry" />
          </mxCell>
        </UserObject>
        <UserObject label="Datasets" type="dataStore" source="" flow="" placeholders="1" id="5h3Ib2V5yh9vbDzyFOlc-5">
          <mxCell style="html=1;dashed=0;whiteSpace=wrap;shape=partialRectangle;right=0;left=0;" vertex="1" parent="1">
            <mxGeometry x="2480" width="75" height="35" as="geometry" />
          </mxCell>
        </UserObject>
        <UserObject label="Publications in Opus" type="dataStore" source="" flow="" placeholders="1" id="5h3Ib2V5yh9vbDzyFOlc-6">
          <mxCell style="html=1;dashed=0;whiteSpace=wrap;shape=partialRectangle;right=0;left=0;" vertex="1" parent="1">
            <mxGeometry x="2615" width="135" height="35" as="geometry" />
          </mxCell>
        </UserObject>
        <UserObject label="Archive" type="dataStore" source="" flow="" placeholders="1" id="5h3Ib2V5yh9vbDzyFOlc-7">
          <mxCell style="html=1;dashed=0;whiteSpace=wrap;shape=partialRectangle;right=0;left=0;" vertex="1" parent="1">
            <mxGeometry x="2810" width="65" height="35" as="geometry" />
          </mxCell>
        </UserObject>
        <UserObject label="Privileged Access Request" type="dataStore" source="" flow="" placeholders="1" id="5h3Ib2V5yh9vbDzyFOlc-8">
          <mxCell style="html=1;dashed=0;whiteSpace=wrap;shape=partialRectangle;right=0;left=0;" vertex="1" parent="1">
            <mxGeometry x="2935" width="175" height="35" as="geometry" />
          </mxCell>
        </UserObject>
        <UserObject label="Deposit Data Request" type="dataStore" source="" flow="" placeholders="1" id="5h3Ib2V5yh9vbDzyFOlc-9">
          <mxCell style="html=1;dashed=0;whiteSpace=wrap;shape=partialRectangle;right=0;left=0;" vertex="1" parent="1">
            <mxGeometry x="3170" width="145" height="35" as="geometry" />
          </mxCell>
        </UserObject>
        <UserObject label="API (SWORD2)" type="dataStore" source="" flow="" placeholders="1" id="5h3Ib2V5yh9vbDzyFOlc-10">
          <mxCell style="html=1;dashed=0;whiteSpace=wrap;shape=partialRectangle;right=0;left=0;" vertex="1" parent="1">
            <mxGeometry x="3375" width="115" height="35" as="geometry" />
          </mxCell>
        </UserObject>
        <UserObject label="Deposit Data" type="process" source="1,4" flow="Depositor,Developer" placeholders="1" id="5h3Ib2V5yh9vbDzyFOlc-11">
          <mxCell style="shape=ellipse;perimeter=ellipsePerimeter;whiteSpace=wrap;html=1;fillColor=#ffffff;strokeColor=#000000;align=center;verticalAlign=middle;fontColor=#232F3E;" vertex="1" parent="1">
            <mxGeometry x="1445" y="135" width="95" height="35" as="geometry" />
          </mxCell>
        </UserObject>
        <UserObject label="Link Datasets to Publications" type="process" source="1" flow="Depositor" placeholders="1" id="5h3Ib2V5yh9vbDzyFOlc-12">
          <mxCell style="shape=ellipse;perimeter=ellipsePerimeter;whiteSpace=wrap;html=1;fillColor=#ffffff;strokeColor=#000000;align=center;verticalAlign=middle;fontColor=#232F3E;" vertex="1" parent="1">
            <mxGeometry y="135" width="185" height="35" as="geometry" />
          </mxCell>
        </UserObject>
        <UserObject label="Gain Privileged Access to Data" type="process" source="2" flow="External Collaborator" placeholders="1" id="5h3Ib2V5yh9vbDzyFOlc-13">
          <mxCell style="shape=ellipse;perimeter=ellipsePerimeter;whiteSpace=wrap;html=1;fillColor=#ffffff;strokeColor=#000000;align=center;verticalAlign=middle;fontColor=#232F3E;" vertex="1" parent="1">
            <mxGeometry x="2225" y="135" width="195" height="35" as="geometry" />
          </mxCell>
        </UserObject>
        <UserObject label="Deposit Facility Data into Archive" type="process" source="3" flow="Research Facility Manager" placeholders="1" id="5h3Ib2V5yh9vbDzyFOlc-14">
          <mxCell style="shape=ellipse;perimeter=ellipsePerimeter;whiteSpace=wrap;html=1;fillColor=#ffffff;strokeColor=#000000;align=center;verticalAlign=middle;fontColor=#232F3E;" vertex="1" parent="1">
            <mxGeometry x="1210" y="135" width="205" height="35" as="geometry" />
          </mxCell>
        </UserObject>
        <UserObject label="Deposit and Maintain Datasets via API" type="process" source="4" flow="Developer" placeholders="1" id="5h3Ib2V5yh9vbDzyFOlc-15">
          <mxCell style="shape=ellipse;perimeter=ellipsePerimeter;whiteSpace=wrap;html=1;fillColor=#ffffff;strokeColor=#000000;align=center;verticalAlign=middle;fontColor=#232F3E;" vertex="1" parent="1">
            <mxGeometry x="1755" y="135" width="235" height="35" as="geometry" />
          </mxCell>
        </UserObject>
        <UserObject label="Request Privileged Access" type="process" source="2" flow="External Collaborator" placeholders="1" id="5h3Ib2V5yh9vbDzyFOlc-16">
          <mxCell style="shape=ellipse;perimeter=ellipsePerimeter;whiteSpace=wrap;html=1;fillColor=#ffffff;strokeColor=#000000;align=center;verticalAlign=middle;fontColor=#232F3E;" vertex="1" parent="1">
            <mxGeometry x="2020" y="135" width="175" height="35" as="geometry" />
          </mxCell>
        </UserObject>
        <UserObject label="Request Data Deposit" type="process" source="1,3" flow="Depositor,Research Facility Manager" placeholders="1" id="5h3Ib2V5yh9vbDzyFOlc-17">
          <mxCell style="shape=ellipse;perimeter=ellipsePerimeter;whiteSpace=wrap;html=1;fillColor=#ffffff;strokeColor=#000000;align=center;verticalAlign=middle;fontColor=#232F3E;" vertex="1" parent="1">
            <mxGeometry x="1035" y="135" width="145" height="35" as="geometry" />
          </mxCell>
        </UserObject>
        <UserObject label="Approve Privileged Access Request" type="process" source="1,3" flow="Depositor,Research Facility Manager" placeholders="1" id="5h3Ib2V5yh9vbDzyFOlc-18">
          <mxCell style="shape=ellipse;perimeter=ellipsePerimeter;whiteSpace=wrap;html=1;fillColor=#ffffff;strokeColor=#000000;align=center;verticalAlign=middle;fontColor=#232F3E;" vertex="1" parent="1">
            <mxGeometry x="215" y="135" width="215" height="35" as="geometry" />
          </mxCell>
        </UserObject>
        <UserObject label="Approve Data Deposit Request" type="process" source="1,3" flow="Depositor,Research Facility Manager" placeholders="1" id="5h3Ib2V5yh9vbDzyFOlc-19">
          <mxCell style="shape=ellipse;perimeter=ellipsePerimeter;whiteSpace=wrap;html=1;fillColor=#ffffff;strokeColor=#000000;align=center;verticalAlign=middle;fontColor=#232F3E;" vertex="1" parent="1">
            <mxGeometry x="460" y="135" width="195" height="35" as="geometry" />
          </mxCell>
        </UserObject>
        <UserObject label="Grant Privileged Access" type="process" source="1,3" flow="Depositor,Research Facility Manager" placeholders="1" id="5h3Ib2V5yh9vbDzyFOlc-20">
          <mxCell style="shape=ellipse;perimeter=ellipsePerimeter;whiteSpace=wrap;html=1;fillColor=#ffffff;strokeColor=#000000;align=center;verticalAlign=middle;fontColor=#232F3E;" vertex="1" parent="1">
            <mxGeometry x="685" y="135" width="155" height="35" as="geometry" />
          </mxCell>
        </UserObject>
        <UserObject label="Grant Data Deposit" type="process" source="1,3" flow="Depositor,Research Facility Manager" placeholders="1" id="5h3Ib2V5yh9vbDzyFOlc-21">
          <mxCell style="shape=ellipse;perimeter=ellipsePerimeter;whiteSpace=wrap;html=1;fillColor=#ffffff;strokeColor=#000000;align=center;verticalAlign=middle;fontColor=#232F3E;" vertex="1" parent="1">
            <mxGeometry x="870" y="135" width="135" height="35" as="geometry" />
          </mxCell>
        </UserObject>
        <UserObject label="Access Deposited Data" type="process" source="1,2,3,4" flow="Depositor,External Collaborator,Research Facility Manager,Developer" placeholders="1" id="5h3Ib2V5yh9vbDzyFOlc-22">
          <mxCell style="shape=ellipse;perimeter=ellipsePerimeter;whiteSpace=wrap;html=1;fillColor=#ffffff;strokeColor=#000000;align=center;verticalAlign=middle;fontColor=#232F3E;" vertex="1" parent="1">
            <mxGeometry x="1570" y="135" width="155" height="35" as="geometry" />
          </mxCell>
        </UserObject>
        <mxCell id="5h3Ib2V5yh9vbDzyFOlc-23" value="Depositor,Developer" style="endArrow=blockThin;endFill=1;fontSize=11;orthogonal=1;noEdgeStyle=1;" edge="1" parent="1" source="5h3Ib2V5yh9vbDzyFOlc-1" target="5h3Ib2V5yh9vbDzyFOlc-11">
          <mxGeometry relative="1" as="geometry">
            <Array as="points">
              <mxPoint x="870.3125" y="49" />
              <mxPoint x="1471.25" y="123" />
            </Array>
          </mxGeometry>
        </mxCell>
        <mxCell id="5h3Ib2V5yh9vbDzyFOlc-24" value="Depositor,Developer" style="endArrow=blockThin;endFill=1;fontSize=11;orthogonal=1;noEdgeStyle=1;" edge="1" parent="1" source="5h3Ib2V5yh9vbDzyFOlc-4" target="5h3Ib2V5yh9vbDzyFOlc-11">
          <mxGeometry relative="1" as="geometry">
            <Array as="points">
              <mxPoint x="1252.5" y="47" />
              <mxPoint x="1513.75" y="123" />
            </Array>
          </mxGeometry>
        </mxCell>
        <mxCell id="5h3Ib2V5yh9vbDzyFOlc-25" value="Depositor" style="endArrow=blockThin;endFill=1;fontSize=11;orthogonal=1;noEdgeStyle=1;" edge="1" parent="1" source="5h3Ib2V5yh9vbDzyFOlc-1" target="5h3Ib2V5yh9vbDzyFOlc-12">
          <mxGeometry relative="1" as="geometry">
            <Array as="points">
              <mxPoint x="821.5625" y="47" />
              <mxPoint x="92.5" y="123" />
            </Array>
          </mxGeometry>
        </mxCell>
        <mxCell id="5h3Ib2V5yh9vbDzyFOlc-26" value="External Collaborator" style="endArrow=blockThin;endFill=1;fontSize=11;orthogonal=1;noEdgeStyle=1;" edge="1" parent="1" source="5h3Ib2V5yh9vbDzyFOlc-2" target="5h3Ib2V5yh9vbDzyFOlc-13">
          <mxGeometry relative="1" as="geometry">
            <Array as="points">
              <mxPoint x="2152.5" y="47" />
              <mxPoint x="2322.5" y="123" />
            </Array>
          </mxGeometry>
        </mxCell>
        <mxCell id="5h3Ib2V5yh9vbDzyFOlc-27" value="Research Facility Manager" style="endArrow=blockThin;endFill=1;fontSize=11;orthogonal=1;noEdgeStyle=1;" edge="1" parent="1" source="5h3Ib2V5yh9vbDzyFOlc-3" target="5h3Ib2V5yh9vbDzyFOlc-14">
          <mxGeometry relative="1" as="geometry">
            <Array as="points">
              <mxPoint x="1052.1428571428573" y="49" />
              <mxPoint x="1312.5" y="123" />
            </Array>
          </mxGeometry>
        </mxCell>
        <mxCell id="5h3Ib2V5yh9vbDzyFOlc-28" value="Developer" style="endArrow=blockThin;endFill=1;fontSize=11;orthogonal=1;noEdgeStyle=1;" edge="1" parent="1" source="5h3Ib2V5yh9vbDzyFOlc-4" target="5h3Ib2V5yh9vbDzyFOlc-15">
          <mxGeometry relative="1" as="geometry">
            <Array as="points">
              <mxPoint x="1302.5" y="47" />
              <mxPoint x="1872.5" y="123" />
            </Array>
          </mxGeometry>
        </mxCell>
        <mxCell id="5h3Ib2V5yh9vbDzyFOlc-29" value="External Collaborator" style="endArrow=blockThin;endFill=1;fontSize=11;orthogonal=1;noEdgeStyle=1;" edge="1" parent="1" source="5h3Ib2V5yh9vbDzyFOlc-2" target="5h3Ib2V5yh9vbDzyFOlc-16">
          <mxGeometry relative="1" as="geometry">
            <Array as="points">
              <mxPoint x="2107.5" y="49" />
              <mxPoint x="2107.5" y="123" />
            </Array>
          </mxGeometry>
        </mxCell>
        <mxCell id="5h3Ib2V5yh9vbDzyFOlc-30" value="Depositor,Research Facility Manager" style="endArrow=blockThin;endFill=1;fontSize=11;orthogonal=1;noEdgeStyle=1;" edge="1" parent="1" source="5h3Ib2V5yh9vbDzyFOlc-1" target="5h3Ib2V5yh9vbDzyFOlc-17">
          <mxGeometry relative="1" as="geometry">
            <Array as="points">
              <mxPoint x="862.1875" y="51" />
              <mxPoint x="1073.75" y="123" />
            </Array>
          </mxGeometry>
        </mxCell>
        <mxCell id="5h3Ib2V5yh9vbDzyFOlc-31" value="Depositor,Research Facility Manager" style="endArrow=blockThin;endFill=1;fontSize=11;orthogonal=1;noEdgeStyle=1;" edge="1" parent="1" source="5h3Ib2V5yh9vbDzyFOlc-3" target="5h3Ib2V5yh9vbDzyFOlc-17">
          <mxGeometry relative="1" as="geometry">
            <Array as="points">
              <mxPoint x="1028.5714285714287" y="51" />
              <mxPoint x="1141.25" y="123" />
            </Array>
          </mxGeometry>
        </mxCell>
        <mxCell id="5h3Ib2V5yh9vbDzyFOlc-32" value="Depositor,Research Facility Manager" style="endArrow=blockThin;endFill=1;fontSize=11;orthogonal=1;noEdgeStyle=1;" edge="1" parent="1" source="5h3Ib2V5yh9vbDzyFOlc-1" target="5h3Ib2V5yh9vbDzyFOlc-18">
          <mxGeometry relative="1" as="geometry">
            <Array as="points">
              <mxPoint x="829.6875" y="49" />
              <mxPoint x="271.25" y="123" />
            </Array>
          </mxGeometry>
        </mxCell>
        <mxCell id="5h3Ib2V5yh9vbDzyFOlc-33" value="Depositor,Research Facility Manager" style="endArrow=blockThin;endFill=1;fontSize=11;orthogonal=1;noEdgeStyle=1;" edge="1" parent="1" source="5h3Ib2V5yh9vbDzyFOlc-3" target="5h3Ib2V5yh9vbDzyFOlc-18">
          <mxGeometry relative="1" as="geometry">
            <Array as="points">
              <mxPoint x="934.2857142857143" y="47" />
              <mxPoint x="373.75" y="123" />
            </Array>
          </mxGeometry>
        </mxCell>
        <mxCell id="5h3Ib2V5yh9vbDzyFOlc-34" value="Depositor,Research Facility Manager" style="endArrow=blockThin;endFill=1;fontSize=11;orthogonal=1;noEdgeStyle=1;" edge="1" parent="1" source="5h3Ib2V5yh9vbDzyFOlc-1" target="5h3Ib2V5yh9vbDzyFOlc-19">
          <mxGeometry relative="1" as="geometry">
            <Array as="points">
              <mxPoint x="837.8125" y="51" />
              <mxPoint x="511.25" y="123" />
            </Array>
          </mxGeometry>
        </mxCell>
        <mxCell id="5h3Ib2V5yh9vbDzyFOlc-35" value="Depositor,Research Facility Manager" style="endArrow=blockThin;endFill=1;fontSize=11;orthogonal=1;noEdgeStyle=1;" edge="1" parent="1" source="5h3Ib2V5yh9vbDzyFOlc-3" target="5h3Ib2V5yh9vbDzyFOlc-19">
          <mxGeometry relative="1" as="geometry">
            <Array as="points">
              <mxPoint x="957.8571428571429" y="49" />
              <mxPoint x="603.75" y="123" />
            </Array>
          </mxGeometry>
        </mxCell>
        <mxCell id="5h3Ib2V5yh9vbDzyFOlc-36" value="Depositor,Research Facility Manager" style="endArrow=blockThin;endFill=1;fontSize=11;orthogonal=1;noEdgeStyle=1;" edge="1" parent="1" source="5h3Ib2V5yh9vbDzyFOlc-1" target="5h3Ib2V5yh9vbDzyFOlc-20">
          <mxGeometry relative="1" as="geometry">
            <Array as="points">
              <mxPoint x="845.9375" y="53" />
              <mxPoint x="726.25" y="123" />
            </Array>
          </mxGeometry>
        </mxCell>
        <mxCell id="5h3Ib2V5yh9vbDzyFOlc-37" value="Depositor,Research Facility Manager" style="endArrow=blockThin;endFill=1;fontSize=11;orthogonal=1;noEdgeStyle=1;" edge="1" parent="1" source="5h3Ib2V5yh9vbDzyFOlc-3" target="5h3Ib2V5yh9vbDzyFOlc-20">
          <mxGeometry relative="1" as="geometry">
            <Array as="points">
              <mxPoint x="981.4285714285714" y="51" />
              <mxPoint x="798.75" y="123" />
            </Array>
          </mxGeometry>
        </mxCell>
        <mxCell id="5h3Ib2V5yh9vbDzyFOlc-38" value="Depositor,Research Facility Manager" style="endArrow=blockThin;endFill=1;fontSize=11;orthogonal=1;noEdgeStyle=1;" edge="1" parent="1" source="5h3Ib2V5yh9vbDzyFOlc-1" target="5h3Ib2V5yh9vbDzyFOlc-21">
          <mxGeometry relative="1" as="geometry">
            <Array as="points">
              <mxPoint x="854.0625" y="53" />
              <mxPoint x="906.25" y="123" />
            </Array>
          </mxGeometry>
        </mxCell>
        <mxCell id="5h3Ib2V5yh9vbDzyFOlc-39" value="Depositor,Research Facility Manager" style="endArrow=blockThin;endFill=1;fontSize=11;orthogonal=1;noEdgeStyle=1;" edge="1" parent="1" source="5h3Ib2V5yh9vbDzyFOlc-3" target="5h3Ib2V5yh9vbDzyFOlc-21">
          <mxGeometry relative="1" as="geometry">
            <Array as="points">
              <mxPoint x="1005" y="53" />
              <mxPoint x="968.75" y="123" />
            </Array>
          </mxGeometry>
        </mxCell>
        <mxCell id="5h3Ib2V5yh9vbDzyFOlc-40" value="Depositor,External Collaborator,Research Facility Manager,Developer" style="endArrow=blockThin;endFill=1;fontSize=11;orthogonal=1;noEdgeStyle=1;" edge="1" parent="1" source="5h3Ib2V5yh9vbDzyFOlc-1" target="5h3Ib2V5yh9vbDzyFOlc-22">
          <mxGeometry relative="1" as="geometry">
            <Array as="points">
              <mxPoint x="878.4375" y="47" />
              <mxPoint x="1593.125" y="123" />
            </Array>
          </mxGeometry>
        </mxCell>
        <mxCell id="5h3Ib2V5yh9vbDzyFOlc-41" value="Depositor,External Collaborator,Research Facility Manager,Developer" style="endArrow=blockThin;endFill=1;fontSize=11;orthogonal=1;noEdgeStyle=1;" edge="1" parent="1" source="5h3Ib2V5yh9vbDzyFOlc-2" target="5h3Ib2V5yh9vbDzyFOlc-22">
          <mxGeometry relative="1" as="geometry">
            <Array as="points">
              <mxPoint x="2062.5" y="47" />
              <mxPoint x="1701.875" y="123" />
            </Array>
          </mxGeometry>
        </mxCell>
        <mxCell id="5h3Ib2V5yh9vbDzyFOlc-42" value="Depositor,External Collaborator,Research Facility Manager,Developer" style="endArrow=blockThin;endFill=1;fontSize=11;orthogonal=1;noEdgeStyle=1;" edge="1" parent="1" source="5h3Ib2V5yh9vbDzyFOlc-3" target="5h3Ib2V5yh9vbDzyFOlc-22">
          <mxGeometry relative="1" as="geometry">
            <Array as="points">
              <mxPoint x="1075.714285714286" y="47" />
              <mxPoint x="1629.375" y="121" />
            </Array>
          </mxGeometry>
        </mxCell>
        <mxCell id="5h3Ib2V5yh9vbDzyFOlc-43" value="Depositor,External Collaborator,Research Facility Manager,Developer" style="endArrow=blockThin;endFill=1;fontSize=11;orthogonal=1;noEdgeStyle=1;" edge="1" parent="1" source="5h3Ib2V5yh9vbDzyFOlc-4" target="5h3Ib2V5yh9vbDzyFOlc-22">
          <mxGeometry relative="1" as="geometry">
            <Array as="points">
              <mxPoint x="1277.5" y="49" />
              <mxPoint x="1665.625" y="121" />
            </Array>
          </mxGeometry>
        </mxCell>
      </root>
    </mxGraphModel>
  </diagram>
</mxfile>
